<svg width="156" height="97" viewBox="0 0 156 97" fill="none" xmlns="http://www.w3.org/2000/svg">
<path d="M114.676 89.8539C117.972 93.1763 122.151 95.4688 126.711 96.4558C131.27 97.4427 136.015 97.082 140.376 95.417C144.736 93.7521 148.526 90.8537 151.29 87.0706C154.054 83.2875 155.675 78.7807 155.956 74.0921C156.237 69.4036 155.168 64.7331 152.876 60.6422C150.585 56.5513 147.169 53.2143 143.039 51.0325C138.909 48.8506 134.242 47.9169 129.598 48.3435C124.954 48.7702 120.531 50.5391 116.861 53.4374L98.5749 35.0264L129.176 4.20482L125.061 0.0604559L94.4603 30.882L63.813 0.00647514L59.6983 4.15084L90.3525 35.0264L64.6238 60.9408L43.2518 39.4197C47.0567 34.5314 48.8655 28.3646 48.3089 22.1784C47.7524 15.9923 44.8724 10.2534 40.257 6.13365C35.6416 2.01389 29.639 -0.176021 23.4748 0.0110719C17.3107 0.198164 11.4499 2.74815 7.08916 7.14034C2.72845 11.5325 0.196744 17.4357 0.0109925 23.6443C-0.174759 29.853 1.99945 35.899 6.08968 40.5477C10.1799 45.1963 15.8776 48.0971 22.0194 48.6577C28.1612 49.2183 34.2839 47.3965 39.1372 43.5641L60.5057 65.0852L32.9444 92.8507L37.0574 96.995L94.4672 39.1707L112.751 57.5818C109.103 62.2691 107.284 68.1397 107.638 74.0853C107.993 80.0309 110.496 85.6401 114.676 89.8539ZM39.1026 35.2388L13.4378 9.38527C16.9788 6.80546 21.3164 5.58077 25.6728 5.93088C30.0291 6.28098 34.1191 8.18297 37.2091 11.2957C40.299 14.4084 42.1868 18.5281 42.5339 22.916C42.8809 27.3038 41.6644 31.6726 39.1026 35.2388ZM11.2163 37.4764C8.12591 34.3628 6.23798 30.2421 5.89105 25.8533C5.54413 21.4645 6.76091 17.0948 9.32318 13.5279L34.9931 39.3832C31.4517 41.9639 27.1134 43.1895 22.7561 42.8401C18.3988 42.4906 14.3076 40.5891 11.2163 37.4764ZM118.79 85.7112C116.219 83.1218 114.468 79.8227 113.759 76.231C113.05 72.6393 113.414 68.9164 114.805 65.5331C116.196 62.1497 118.553 59.258 121.576 57.2234C124.599 55.1889 128.153 54.1029 131.789 54.1029C135.424 54.1029 138.979 55.1889 142.002 57.2234C145.025 59.258 147.381 62.1497 148.772 65.5331C150.164 68.9164 150.528 72.6393 149.818 76.231C149.109 79.8227 147.358 83.1218 144.787 85.7112C143.08 87.4306 141.053 88.7944 138.823 89.7248C136.593 90.6552 134.202 91.134 131.788 91.1339C129.374 91.1337 126.984 90.6546 124.754 89.7239C122.523 88.7931 120.497 87.4291 118.79 85.7095V85.7112Z" fill="#FDFDFD"/>
</svg>
